<?xml version="1.0" encoding="UTF-8"?>
<svg width="16" height="16" version="1.1" viewBox="0 0 16 16" xmlns="http://www.w3.org/2000/svg">
 <defs>
  <marker id="arrow" overflow="visible" markerHeight="7" markerWidth="4.2071066" orient="80" preserveAspectRatio="xMidYMid" viewBox="0 0 4.2071068 7">
   <path transform="rotate(180 .12 0)" d="m2-2-2 2 2 2" fill="none" stroke="#000" stroke-linecap="round"/>
  </marker>
 </defs>
 <g transform="translate(-1,-1)">
  <path d="m12 13c-0.54 0.54-1.2 0.98-1.9 1.3-0.72 0.3-1.5 0.47-2.3 0.47-3.3 0-6-2.7-6-6 0-3.3 2.7-6 6-6 0.83 0 1.6 0.17 2.3 0.47 0.72 0.3 1.4 0.74 1.9 1.3 0.54 0.54 0.98 1.2 1.3 1.9 0.3 0.72 0.47 1.5 0.47 2.3" fill="none" marker-end="url(#arrow)" stroke="#000" stroke-linecap="round"/>
 </g>
</svg>
